# xmcd
# 
# Track frame offsets:
#   150
#   12762
#   22858
#   35489
#   45208
#   59040
#   70040
#   83782
#   98486
#   113266
#   125781
#   139630
#   154464
#   166889
#   178422
#   190772
#   203893
# 
# Disc length: 2872 seconds
# 
# Revision: 0
# Processed by: cddbd v1.5.2PL0 Copyright (c) Steve Scherf et al.
# Submitted via: VOLTOCDX V1.0.24 
# 
DISCID=d90b3611
DTITLE=Various Artist - Greates Hits Of George Jones
DYEAR=2012
DGENRE=Karaoke
TTITLE0=White Lightning - George Jones
TTITLE1=The Race is On - George Jones
TTITLE2=She Thinks I Still Care - George Jones
TTITLE3=Love Bug - George Jones
TTITLE4=The Window Up Above - George Jones
TTITLE5=Walk Through This World With me  - George Jones
TTITLE6=When the grass grows over me - George Jones
TTITLE7=A Good Year For The Roses - George Jones
TTITLE8=We're Gonna Hold On - George Jones
TTITLE9=Once You've Had The Best - George Jones
TTITLE10=Grand Tour, The - George Jones
TTITLE11=Golden Ring - George Jones
TTITLE12=Picture Of Me, A (Without You) - George Jones
TTITLE13=We Loved It Away - George Jones - Tammy Wynette
TTITLE14=The Door - George Jones
TTITLE15=Take Me - George Jones
TTITLE16=Near You - George Jones
EXTD=
EXTT0=
EXTT1=
EXTT2=
EXTT3=
EXTT4=
EXTT5=
EXTT6=
EXTT7=
EXTT8=
EXTT9=
EXTT10=
EXTT11=
EXTT12=
EXTT13=
EXTT14=
EXTT15=
EXTT16=
PLAYORDER=
